<?xml version="1.0" encoding="UTF-8"?>
<svg version="1.1" xmlns="http://www.w3.org/2000/svg" width="112" height="112">
<path d="M0 0 C12.27543129 9.55755721 21.19840919 21.43618412 24 37 C25.60020058 53.68982686 22.82094282 68.13399558 13 82 C3.48400035 93.53072926 -9.24896426 100.63805168 -24 103 C-41.63676413 104.08149969 -56.64771954 100.33823373 -70.375 88.75 C-80.69594334 78.84724723 -87.29255302 65.11508046 -88.203125 50.80859375 C-88.44512516 33.40474874 -83.58591857 18.92402911 -71.37109375 6.21484375 C-52.04755733 -11.83531301 -22.11019928 -14.88061799 0 0 Z " fill="#FBFCFC" transform="translate(88,9)"/>
<path d="M0 0 C0.84626953 -0.01095703 1.69253906 -0.02191406 2.56445312 -0.03320312 C6.33349118 0.01106905 9.13622989 0.38669063 12.640625 1.83203125 C15.86391907 6.41146734 15.07994292 11.3767832 14.875 16.8125 C14.85244141 17.93914063 14.82988281 19.06578125 14.80664062 20.2265625 C14.74774254 23.00655232 14.66554201 25.78385332 14.5625 28.5625 C15.26858398 28.54155273 15.97466797 28.52060547 16.70214844 28.49902344 C19.90545376 28.41580702 23.10853163 28.36382215 26.3125 28.3125 C27.97925781 28.26222656 27.97925781 28.26222656 29.6796875 28.2109375 C30.74960938 28.19804688 31.81953125 28.18515625 32.921875 28.171875 C33.90639648 28.15092773 34.89091797 28.12998047 35.90527344 28.10839844 C39.34753733 28.69665743 40.4893367 29.79216674 42.5625 32.5625 C43.34630306 35.67583034 43.16625926 38.79876671 43.125 42 C43.16077148 43.2694043 43.16077148 43.2694043 43.19726562 44.56445312 C43.18763581 48.66354467 42.8608402 51.05143027 40.765625 54.640625 C35.8731346 57.57611924 31.33493299 57.09675971 25.75 56.875 C24.67556641 56.85244141 23.60113281 56.82988281 22.49414062 56.80664062 C19.8488315 56.74785598 17.20638587 56.66573957 14.5625 56.5625 C14.58344727 57.26858398 14.60439453 57.97466797 14.62597656 58.70214844 C14.70919298 61.90545376 14.76117785 65.10853163 14.8125 68.3125 C14.84601563 69.42367187 14.87953125 70.53484375 14.9140625 71.6796875 C14.92695312 72.74960938 14.93984375 73.81953125 14.953125 74.921875 C14.97407227 75.90639648 14.99501953 76.89091797 15.01660156 77.90527344 C14.42834257 81.34753733 13.33283326 82.4893367 10.5625 84.5625 C7.44916966 85.34630306 4.32623329 85.16625926 1.125 85.125 C-0.1444043 85.16077148 -0.1444043 85.16077148 -1.43945312 85.19726562 C-5.53854467 85.18763581 -7.92643027 84.8608402 -11.515625 82.765625 C-14.45111924 77.8731346 -13.97175971 73.33493299 -13.75 67.75 C-13.72744141 66.67556641 -13.70488281 65.60113281 -13.68164062 64.49414062 C-13.62285598 61.8488315 -13.54073957 59.20638587 -13.4375 56.5625 C-14.11329102 56.57821045 -14.78908203 56.5939209 -15.48535156 56.61010742 C-18.55264897 56.67253867 -21.61981259 56.71151647 -24.6875 56.75 C-26.28271484 56.78770508 -26.28271484 56.78770508 -27.91015625 56.82617188 C-28.93496094 56.83583984 -29.95976562 56.84550781 -31.015625 56.85546875 C-31.95825195 56.8711792 -32.90087891 56.88688965 -33.87207031 56.90307617 C-36.96945119 56.49188029 -38.29554054 55.83363838 -40.4375 53.5625 C-40.93920898 51.25 -40.93920898 51.25 -40.93359375 48.5625 C-40.93423828 47.593125 -40.93488281 46.62375 -40.93554688 45.625 C-40.91556641 44.614375 -40.89558594 43.60375 -40.875 42.5625 C-40.88208984 41.551875 -40.88917969 40.54125 -40.89648438 39.5 C-40.83307159 32.16362812 -40.83307159 32.16362812 -39.25683594 29.76831055 C-36.72274632 28.08877906 -34.91844329 28.22153265 -31.89453125 28.26953125 C-30.28481445 28.2840332 -30.28481445 28.2840332 -28.64257812 28.29882812 C-27.52302734 28.32396484 -26.40347656 28.34910156 -25.25 28.375 C-24.11884766 28.38853516 -22.98769531 28.40207031 -21.82226562 28.41601562 C-19.02686683 28.45140042 -16.23242108 28.50077052 -13.4375 28.5625 C-13.45844727 27.8919458 -13.47939453 27.2213916 -13.50097656 26.53051758 C-13.58436027 23.4788322 -13.63623016 20.42738683 -13.6875 17.375 C-13.72101562 16.31990234 -13.75453125 15.26480469 -13.7890625 14.17773438 C-13.84485207 9.75641085 -13.82437192 6.43163692 -12.01171875 2.359375 C-8.11433537 -0.36110506 -4.64263601 -0.13023316 0 0 Z " fill="#071F42" transform="translate(55.4375,13.4375)"/>
</svg>
